<svg xmlns="http://www.w3.org/2000/svg" version="1.1" xmlns:xlink="http://www.w3.org/1999/xlink" xmlns:svgjs="http://svgjs.dev/svgjs" width="1000" height="1000" viewBox="0 0 1000 1000"><rect width="1000" height="1000" fill="#000000"></rect><g transform="matrix(0.7,0,0,0.7,149.57575757575756,413.43711924634056)"><svg viewBox="0 0 396 98" data-background-color="#ffffff" preserveAspectRatio="xMidYMid meet" height="247" width="1000" xmlns="http://www.w3.org/2000/svg" xmlns:xlink="http://www.w3.org/1999/xlink"><defs></defs><g id="tight-bounds" transform="matrix(1,0,0,1,0.2400000000000091,0.06398099397702595)"><svg viewBox="0 0 395.52 97.87203801204596" height="97.87203801204596" width="395.52"><g><svg viewBox="0 0 626.2102218060716 154.95669152542368" height="97.87203801204596" width="395.52"><g><rect width="6.418889851130129" height="154.95669152542368" x="207.46795538130232" y="0" fill="#ffffff" opacity="1" stroke-width="0" stroke="transparent" fill-opacity="1" class="rect-o-0" data-fill-palette-color="primary" rx="1%" id="o-0" data-palette-color="#323660"></rect></g><g transform="matrix(1,0,0,1,230.69022180607152,0.3854644067796471)"><svg viewBox="0 0 395.52 154.18576271186438" height="154.18576271186438" width="395.52"><g><svg viewBox="0 0 395.52 154.18576271186438" height="154.18576271186438" width="395.52"><g><svg viewBox="0 0 395.52 154.18576271186438" height="154.18576271186438" width="395.52"><g transform="matrix(1,0,0,1,0,0)"><svg width="395.52" viewBox="1.0999994277954102 -34.900001525878906 200.60000610351562 74.60000610351562" height="154.18576271186438" data-palette-color="#323660"><svg></svg><svg></svg><g class="undefined-text-0" data-fill-palette-color="primary" id="text-0"><path d="M4.65 0v-34.9h11.7c2.167 0 4.133 0.367 5.9 1.1 1.767 0.733 3.277 1.823 4.53 3.27 1.247 1.453 2.203 3.27 2.87 5.45 0.667 2.187 1 4.73 1 7.63v0c0 2.9-0.333 5.44-1 7.62-0.667 2.187-1.623 4.003-2.87 5.45-1.253 1.453-2.763 2.547-4.53 3.28-1.767 0.733-3.733 1.1-5.9 1.1v0zM8.85-3.7h7.5c1.433 0 2.75-0.24 3.95-0.72 1.2-0.487 2.233-1.197 3.1-2.13 0.867-0.933 1.543-2.077 2.03-3.43 0.48-1.347 0.72-2.887 0.72-4.62v0-5.7c0-1.733-0.24-3.277-0.72-4.63-0.487-1.347-1.163-2.487-2.03-3.42-0.867-0.933-1.9-1.643-3.1-2.13-1.2-0.48-2.517-0.72-3.95-0.72v0h-7.5zM63.85 0h-4.4l-3.5-10.3h-14.1l-3.5 10.3h-4.25l12.2-34.9h5.35zM54.9-14l-5.9-17h-0.25l-5.9 17zM80.65 0h-5.1l-11.6-34.9h4.5l5.75 17.6 3.85 13.1h0.25l3.95-13.1 5.8-17.6h4.35zM110.4 0h-14v-3.5h4.9v-27.9h-4.9v-3.5h14v3.5h-4.9v27.9h4.9zM118.05 0v-34.9h11.7c2.167 0 4.133 0.367 5.9 1.1 1.767 0.733 3.277 1.823 4.53 3.27 1.247 1.453 2.203 3.27 2.87 5.45 0.667 2.187 1 4.73 1 7.63v0c0 2.9-0.333 5.44-1 7.62-0.667 2.187-1.623 4.003-2.87 5.45-1.253 1.453-2.763 2.547-4.53 3.28-1.767 0.733-3.733 1.1-5.9 1.1v0zM122.25-3.7h7.5c1.433 0 2.75-0.24 3.95-0.72 1.2-0.487 2.233-1.197 3.1-2.13 0.867-0.933 1.543-2.077 2.03-3.43 0.48-1.347 0.72-2.887 0.72-4.62v0-5.7c0-1.733-0.24-3.277-0.72-4.63-0.487-1.347-1.163-2.487-2.03-3.42-0.867-0.933-1.9-1.643-3.1-2.13-1.2-0.48-2.517-0.72-3.95-0.72v0h-7.5z" data-fill-palette-color="primary" fill="#ffffff" opacity="1"></path><path d="M27.5 7.9h-11.1v31.2h-4.2v-31.2h-11.1v-3.7h26.4zM37.45 24.1v15h-4.2v-34.9h13.9c3.067 0 5.46 0.85 7.18 2.55 1.713 1.7 2.57 4.15 2.57 7.35v0c0 2.567-0.59 4.673-1.77 6.32-1.187 1.653-2.93 2.747-5.23 3.28v0l8 15.4h-4.75l-7.55-15zM37.45 20.5h9.7c1.667 0 2.96-0.433 3.88-1.3 0.913-0.867 1.37-2.1 1.37-3.7v0-2.6c0-1.6-0.457-2.833-1.37-3.7-0.92-0.867-2.213-1.3-3.88-1.3v0h-9.7zM91.5 39.1h-4.4l-3.5-10.3h-14.1l-3.5 10.3h-4.25l12.2-34.9h5.35zM82.55 25.1l-5.9-17h-0.25l-5.9 17zM108.3 39.1h-5.1l-11.6-34.9h4.5l5.75 17.6 3.85 13.1h0.25l3.95-13.1 5.8-17.6h4.35zM147 39.1h-21.3v-34.9h21.3v3.7h-17.1v11.7h16.1v3.7h-16.1v12.1h17.1zM173.9 39.1h-19.05v-34.9h4.2v31.2h14.85zM189.7 39.7v0c-2.833 0-5.25-0.543-7.25-1.63-2-1.08-3.7-2.57-5.1-4.47v0l3.1-2.6c1.233 1.633 2.6 2.873 4.1 3.72 1.5 0.853 3.267 1.28 5.3 1.28v0c2.5 0 4.41-0.6 5.73-1.8 1.313-1.2 1.97-2.8 1.97-4.8v0c0-1.667-0.5-2.95-1.5-3.85-1-0.9-2.65-1.617-4.95-2.15v0l-2.85-0.65c-3.2-0.733-5.64-1.843-7.32-3.33-1.687-1.48-2.53-3.57-2.53-6.27v0c0-1.533 0.283-2.9 0.85-4.1 0.567-1.2 1.36-2.2 2.38-3 1.013-0.8 2.23-1.41 3.65-1.83 1.413-0.413 2.97-0.62 4.67-0.62v0c2.633 0 4.893 0.483 6.78 1.45 1.88 0.967 3.47 2.383 4.77 4.25v0l-3.15 2.3c-0.967-1.333-2.133-2.383-3.5-3.15-1.367-0.767-3.067-1.15-5.1-1.15v0c-2.233 0-3.99 0.473-5.27 1.42-1.287 0.953-1.93 2.38-1.93 4.28v0c0 1.667 0.543 2.923 1.63 3.77 1.08 0.853 2.72 1.53 4.92 2.03v0l2.85 0.65c3.433 0.767 5.917 1.933 7.45 3.5 1.533 1.567 2.3 3.65 2.3 6.25v0c0 1.6-0.273 3.05-0.82 4.35-0.553 1.3-1.347 2.4-2.38 3.3-1.033 0.9-2.29 1.6-3.77 2.1-1.487 0.5-3.163 0.75-5.03 0.75z" data-fill-palette-color="primary" fill="#ffffff" opacity="1"></path></g></svg></g></svg></g></svg></g></svg></g><g transform="matrix(1,0,0,1,0,0.3854644067796471)"><svg viewBox="0 0 190.66457880766325 154.18576271186438" height="154.18576271186438" width="190.66457880766325"><g><svg xmlns="http://www.w3.org/2000/svg" viewBox="4.999649524688721 13.572050094604492 90.00062561035156 72.78129577636719" xml:space="preserve" x="0" y="0" height="154.18576271186438" width="190.66457880766325" class="icon-icon-0" data-fill-palette-color="accent" id="icon-0"><path d="M23.81 76.102a6.051 6.051 0 0 0 8.556 8.556 6.05 6.05 0 1 0-8.556-8.556z m70.416-61.67l-0.086-0.085c-1.157-1.158-3.192-1-4.544 0.352L66.65 37.643 51.499 22.492 8.754 65.237 6.787 63.27l42.745-42.746a6.05 6.05 0 0 0-8.541 0.015L6.771 54.757a6.054 6.054 0 0 0 0 8.558L20.41 76.951a8.407 8.407 0 0 1 15.398 0.099l35.124-35.125-0.006-0.004 22.945-22.945c1.355-1.353 1.512-3.387 0.355-4.544z" fill="#ffffff" data-fill-palette-color="accent"></path></svg></g></svg></g></svg></g></svg><rect width="395.52" height="97.87203801204596" fill="none" stroke="none" visibility="hidden"></rect></g></svg></g></svg>